<svg width="50" height="214" viewBox="0 0 50 214" fill="none" xmlns="http://www.w3.org/2000/svg">
<path fill-rule="evenodd" clip-rule="evenodd" d="M22.868 0.84205L22 0.84205C21.9627 1.32738 22 1.74272 22.112 2.08805C22.224 2.44272 22.434 2.75538 22.742 3.02605C23.05 3.30605 23.5027 3.51605 24.1 3.65605C24.6973 3.79605 25.4393 3.86605 26.326 3.86605L30.876 3.86605V8.26205H22V9.24205H31.8V2.88605L26.354 2.88605C24.9633 2.88605 24.0113 2.71338 23.498 2.36805C22.9847 2.03205 22.7747 1.52338 22.868 0.84205ZM22 19.1864V20.1664L31.8 20.1664V19.3264L23.82 13.8664H31.8V12.8864L22 12.8864V13.7264L29.98 19.1864H22ZM23.302 24.698C22.322 25.6594 21.832 26.8867 21.832 28.38C21.832 29.276 22.0513 30.1067 22.49 30.872C22.9287 31.6374 23.5167 32.2207 24.254 32.622L24.744 31.754C24.1467 31.446 23.6707 30.9887 23.316 30.382C22.9613 29.7754 22.784 29.108 22.784 28.38C22.784 27.148 23.1807 26.1494 23.974 25.384C24.7767 24.6094 25.752 24.222 26.9 24.222C28.048 24.222 29.0233 24.6094 29.826 25.384C30.6194 26.1494 31.016 27.148 31.016 28.38C31.016 29.108 30.8387 29.7754 30.484 30.382C30.1294 30.9887 29.6534 31.446 29.056 31.754L29.56 32.622C30.2973 32.202 30.8807 31.614 31.31 30.858C31.7487 30.102 31.968 29.276 31.968 28.38C31.968 26.8867 31.478 25.6594 30.498 24.698C29.5087 23.7274 28.3094 23.242 26.9 23.242C25.4907 23.242 24.2913 23.7274 23.302 24.698ZM31.8 41.657V34.657H30.876V37.667H22V38.647H30.876V41.657L31.8 41.657ZM22 50.2843V51.3203L31.8 47.5543V46.5463L22 42.7803V43.8162L24.408 44.7263V49.3743L22 50.2843ZM25.332 45.0763L30.582 47.0503L25.332 49.0243V45.0763ZM32.92 55.7986V59.4386H33.732V55.7986H32.92ZM22 60.2786V61.2586H31.8V60.4186L23.82 54.9586L31.8 54.9586V53.9786H22V54.8186L29.98 60.2786H22ZM31.8 71.0542V64.0542H30.876V67.0642H22V68.0442L30.876 68.0442V71.0542H31.8ZM22.924 74.8348H26.48V79.1748H27.404V74.8348H30.876V79.5248H31.8L31.8 73.8548H22V79.5948H22.924V74.8348ZM26.144 94.1586C26.564 93.8786 26.8767 93.4959 27.082 93.0106C27.558 93.7759 28.2534 94.1586 29.168 94.1586C29.8867 94.1586 30.5027 93.9019 31.016 93.3886C31.5387 92.8659 31.8 92.2453 31.8 91.5266V87.5786H22V91.8486C22 92.6046 22.266 93.2486 22.798 93.7806C23.33 94.3126 23.974 94.5786 24.73 94.5786C25.2527 94.5786 25.724 94.4386 26.144 94.1586ZM30.876 88.5586V91.5266C30.876 91.9746 30.708 92.3619 30.372 92.6886C30.0267 93.0153 29.6254 93.1786 29.168 93.1786C28.7014 93.1786 28.2954 93.0153 27.95 92.6886C27.6234 92.3619 27.46 91.9746 27.46 91.5266V88.5586H30.876ZM22.924 91.8486V88.5586H26.536L26.536 91.8486C26.536 92.3339 26.3587 92.7446 26.004 93.0806C25.6587 93.4259 25.234 93.5986 24.73 93.5986C24.2167 93.5986 23.7874 93.4259 23.442 93.0806C23.0967 92.7446 22.924 92.3339 22.924 91.8486ZM31.8 103.96H27.502V98.6403H31.8V97.6603H22V98.6403H26.578V103.96H22V104.94H31.8V103.96ZM22 114.876V115.856H31.8V115.016L23.82 109.556H31.8V108.576H22V109.416L29.98 114.876H22ZM26.13 125.274C26.55 124.975 26.8627 124.555 27.068 124.014C27.544 124.91 28.272 125.358 29.252 125.358C30.0267 125.358 30.6707 125.073 31.184 124.504C31.7067 123.925 31.968 123.178 31.968 122.264C31.968 120.677 31.3054 119.613 29.98 119.072L29.504 119.884C30.5307 120.266 31.044 121.06 31.044 122.264C31.044 122.908 30.8807 123.421 30.554 123.804C30.2274 124.186 29.798 124.378 29.266 124.378C28.7247 124.378 28.286 124.182 27.95 123.79C27.6234 123.398 27.46 122.87 27.46 122.208V121.438H26.536V122.558C26.536 123.23 26.3634 123.762 26.018 124.154C25.6727 124.546 25.2154 124.742 24.646 124.742C24.0767 124.742 23.6194 124.527 23.274 124.098C22.9287 123.668 22.756 123.08 22.756 122.334C22.756 121.596 22.9147 121.018 23.232 120.598C23.5587 120.178 23.988 119.902 24.52 119.772L24.044 118.932C23.372 119.165 22.8354 119.566 22.434 120.136C22.0327 120.705 21.832 121.438 21.832 122.334C21.832 123.37 22.0934 124.191 22.616 124.798C23.148 125.414 23.8247 125.722 24.646 125.722C25.2154 125.722 25.71 125.572 26.13 125.274ZM1.29015 186.325L24.4781 211.068L24.4781 161H25.4781L25.4781 211.07L48.6682 186.325L49.3978 187.009L25.344 212.676L24.9792 213.065L24.6143 212.676L0.560486 187.009L1.29015 186.325Z" fill="#1C1C1C"/>
</svg>
